<svg version="1.1" xmlns="http://www.w3.org/2000/svg" style="display: block;" viewBox="0 0 2048 2048" width="1024" height="1024" preserveAspectRatio="none">
<defs>
	<linearGradient id="Gradient1" gradientUnits="userSpaceOnUse" x1="1248.08" y1="1092.01" x2="1027.52" y2="963.277">
		<stop class="stop0" offset="0" stop-opacity="1" stop-color="rgb(156,67,66)"/>
		<stop class="stop1" offset="1" stop-opacity="1" stop-color="rgb(191,83,82)"/>
	</linearGradient>
</defs>
<path transform="translate(0,0)" fill="rgb(255,255,255)" d="M 0 0 L 2048 0 L 2048 2048 L 0 2048 L 0 0 z"/>
<path transform="translate(0,0)" fill="rgb(84,43,50)" d="M 371.061 618.571 C 381.579 609.379 407.285 591.493 419.506 582.426 L 515.11 510.954 C 528.389 500.909 544.458 489.436 556.876 478.9 C 562.048 474.512 572.861 453.105 576.742 445.903 C 585.642 429.271 594.415 412.571 603.062 395.806 C 614.348 374.144 620.746 363.342 635.879 343.737 C 659.641 312.954 699.537 297.326 735.132 283.781 C 753.815 286.514 777.757 280.263 795.323 282.309 C 814.314 284.521 863.337 302.073 879.785 312.15 C 888.37 317.41 912.821 331.442 914.936 334.607 C 933.808 362.835 951.623 393.86 967.494 423.601 C 969.298 430.563 975.426 449.528 970.792 454.919 C 964.317 461.398 957.337 470.621 951.72 478.057 C 945.406 488.006 938.77 500.515 935.963 512.027 C 935.419 516.441 934.953 520.865 934.565 525.296 C 940.129 537.513 961.935 566.731 970.08 577.839 C 966.84 608.361 974.586 638.862 975.754 669.245 C 975.825 671.088 974.727 673.404 973.929 675.023 C 970.723 679.157 967.955 682.287 966.166 687.292 C 966.663 690.369 967.445 690.826 965.492 692.98 C 958.196 701.025 946.765 709.367 937.797 715.193 C 922.094 723.369 906.332 731.432 890.514 739.383 C 876.894 734.575 863.067 730.38 849.072 726.81 L 746.846 696.443 C 747.069 712.232 747.211 729.629 748.955 745.336 C 751.905 777.905 751.18 780.378 743.605 812.246 C 737.334 838.626 729.382 866.673 723.722 892.989 C 728.337 921.872 734.172 954.616 737.816 983.392 C 793.968 971.544 851.262 961.025 907.549 949.701 C 917.26 947.748 966.863 936.835 973.625 937.689 C 990.315 939.797 1023.76 949.028 1042.39 952.781 C 1029.73 968.505 1018.41 982.572 1005.09 997.831 C 1016.28 1002.23 1053.23 1010.77 1065.7 1013.5 C 1052.6 1026.56 1038.8 1040.21 1027.16 1054.6 L 1025.71 1055.62 C 1015.72 1067.83 1003.9 1081.61 994.536 1094.09 L 973.909 1089.24 C 869.375 1123.37 762.376 1152.5 657.571 1186.01 C 650.387 1188.31 609.452 1199.65 605.752 1202.27 C 602.569 1210.3 595.838 1223.58 591.959 1231.79 C 611.635 1223.62 632.835 1216.07 652.821 1208.31 C 696.927 1191.3 740.87 1173.88 784.644 1156.04 C 799.487 1160.18 815.26 1166.58 830.38 1170.16 C 832.001 1170.54 834.864 1169.52 836.47 1168.9 C 844.651 1166.37 854.925 1163.51 862.823 1160.64 C 878.317 1167.77 928.592 1189.79 937.978 1200.01 C 946.685 1209.5 952.923 1223.96 959.036 1235.29 C 963.633 1243.82 970.111 1252.26 973.54 1261.27 C 977.013 1270.39 974.962 1405.62 974.952 1426.15 L 974.886 1698.79 C 982.023 1703.82 1006.1 1721.31 1012.8 1724 C 1011.1 1728.9 1005.79 1736.64 1003.13 1741.77 C 998.601 1747.76 993.901 1756.95 989.575 1763.76 C 980.403 1751.57 971.688 1738.39 963.075 1725.74 C 953.018 1725.55 887.314 1726.67 883.686 1724.29 C 880.294 1726.31 853.973 1725.07 847.985 1724.98 C 836.541 1741.1 819.944 1762.71 810.138 1778.78 C 815.535 1780.24 821.172 1778.74 826.633 1778.98 C 838.044 1779.5 861.337 1778.25 871.615 1781.98 C 863.276 1790.97 851.334 1801.52 842.163 1810.04 C 854.834 1810 873.875 1809.37 886.048 1810.22 C 873.614 1811.16 855.921 1810.75 843.086 1810.78 L 770.363 1810.86 L 718.314 1810.88 C 710.205 1810.88 696.535 1811.28 688.828 1810.41 C 677.444 1797.13 665.072 1783.06 654.867 1768.93 C 659.853 1755.15 669.082 1731.2 672.34 1717.41 C 677.71 1694.69 681.116 1665.14 684.265 1641.42 C 669.607 1643.08 624.003 1641.81 607.099 1641.65 C 579.833 1641.38 542.098 1642.99 516.098 1641.46 C 499.722 1640.09 457.731 1641.07 440.119 1641.68 C 420.614 1640.43 384.395 1641.62 363.934 1641.66 L 213.76 1641.81 C 212.871 1633.83 213.164 1616.47 213.148 1608.13 L 213.118 1549.89 C 231.354 1549.83 362.474 1551.2 368.898 1548.55 L 289.386 1520.33 C 275.576 1502.1 264.221 1480.43 252.258 1460.82 C 241.68 1443.47 225.597 1420.35 217.737 1402.16 C 213.86 1393.19 215.986 1300.33 215.98 1283.9 L 215.939 1117.92 L 215.93 1070.99 C 215.932 1067.24 215.825 1048.74 216.312 1046.67 C 219.329 1033.84 226.311 1016.69 230.927 1004.19 L 259.197 926.853 L 371.061 618.571 z"/>
<path transform="translate(0,0)" fill="rgb(145,69,71)" d="M 537.509 590.295 C 560.047 591.991 589.363 589.555 612.299 590.048 C 618.864 590.189 634.292 589.194 639.508 590.567 C 653.006 595.687 672.471 608.186 689.566 615.321 C 702.301 645.131 715.067 674.562 729.066 703.828 C 733.073 712.206 743.827 738.729 748.955 745.336 C 751.905 777.905 751.18 780.378 743.605 812.246 C 737.334 838.626 729.382 866.673 723.722 892.989 C 728.337 921.872 734.172 954.616 737.816 983.392 C 793.968 971.544 851.262 961.025 907.549 949.701 C 917.26 947.748 966.863 936.835 973.625 937.689 C 990.315 939.797 1023.76 949.028 1042.39 952.781 C 1029.73 968.505 1018.41 982.572 1005.09 997.831 C 1016.28 1002.23 1053.23 1010.77 1065.7 1013.5 C 1052.6 1026.56 1038.8 1040.21 1027.16 1054.6 L 1025.71 1055.62 C 1015.72 1067.83 1003.9 1081.61 994.536 1094.09 L 973.909 1089.24 C 869.375 1123.37 762.376 1152.5 657.571 1186.01 C 650.387 1188.31 609.452 1199.65 605.752 1202.27 C 597.923 1196.24 582.751 1188.8 573.78 1183.76 C 552.082 1171.56 528.451 1160.01 507.226 1147.12 C 507.468 1132.3 505.237 1109.21 504.179 1093.77 L 498.403 1006.34 L 474.766 670.097 C 492.667 648.836 521.594 613.19 537.509 590.295 z"/>
<path transform="translate(0,0)" fill="rgb(84,43,50)" d="M 507.226 1147.12 C 511.068 1146.92 530.684 1142.31 535.507 1141.26 L 610.548 1124.43 L 878.559 1065.23 C 900.262 1060.2 922.016 1055.4 943.817 1050.82 C 955.348 1048.39 971.189 1043.79 982.368 1046.1 C 996.461 1049.02 1011.87 1051.85 1025.71 1055.62 C 1015.72 1067.83 1003.9 1081.61 994.536 1094.09 L 973.909 1089.24 C 869.375 1123.37 762.376 1152.5 657.571 1186.01 C 650.387 1188.31 609.452 1199.65 605.752 1202.27 C 597.923 1196.24 582.751 1188.8 573.78 1183.76 C 552.082 1171.56 528.451 1160.01 507.226 1147.12 z"/>
<path transform="translate(0,0)" fill="rgb(237,114,102)" d="M 639.508 590.567 C 653.006 595.687 672.471 608.186 689.566 615.321 C 702.301 645.131 715.067 674.562 729.066 703.828 C 733.073 712.206 743.827 738.729 748.955 745.336 C 751.905 777.905 751.18 780.378 743.605 812.246 C 737.334 838.626 729.382 866.673 723.722 892.989 C 718.258 906.975 713.443 923.189 708.249 937.652 C 697.257 968.062 685.242 998.092 672.224 1027.69 C 667.167 1017.02 673.221 837.718 670.228 810.438 C 668.701 796.51 687.156 692.257 691.574 674.701 C 685.71 666.702 642.07 598.828 639.508 590.567 z"/>
<path transform="translate(0,0)" fill="rgb(45,21,32)" d="M 723.722 892.989 C 728.337 921.872 734.172 954.616 737.816 983.392 C 793.968 971.544 851.262 961.025 907.549 949.701 C 917.26 947.748 966.863 936.835 973.625 937.689 C 990.315 939.797 1023.76 949.028 1042.39 952.781 C 1029.73 968.505 1018.41 982.572 1005.09 997.831 C 994.215 998.218 977.209 987.782 965.957 988.156 C 959.344 988.376 949.656 990.155 942.947 991.101 L 897.392 997.537 C 836.326 1006.18 775.337 1015.4 714.266 1023.94 C 704.158 1025.35 681.834 1029.81 673.1 1029.43 C 672.784 1028.86 672.33 1028.33 672.224 1027.69 C 685.242 998.092 697.257 968.062 708.249 937.652 C 713.443 923.189 718.258 906.975 723.722 892.989 z"/>
<path transform="translate(0,0)" fill="rgb(145,69,71)" d="M 836.47 1168.9 C 844.651 1166.37 854.925 1163.51 862.823 1160.64 C 878.317 1167.77 928.592 1189.79 937.978 1200.01 C 946.685 1209.5 952.923 1223.96 959.036 1235.29 C 963.633 1243.82 970.111 1252.26 973.54 1261.27 C 977.013 1270.39 974.962 1405.62 974.952 1426.15 L 974.886 1698.79 C 982.023 1703.82 1006.1 1721.31 1012.8 1724 C 1011.1 1728.9 1005.79 1736.64 1003.13 1741.77 C 998.601 1747.76 993.901 1756.95 989.575 1763.76 C 980.403 1751.57 971.688 1738.39 963.075 1725.74 C 953.018 1725.55 887.314 1726.67 883.686 1724.29 C 880.294 1726.31 853.973 1725.07 847.985 1724.98 C 836.541 1741.1 819.944 1762.71 810.138 1778.78 C 815.535 1780.24 821.172 1778.74 826.633 1778.98 C 838.044 1779.5 861.337 1778.25 871.615 1781.98 C 863.276 1790.97 851.334 1801.52 842.163 1810.04 C 854.834 1810 873.875 1809.37 886.048 1810.22 C 873.614 1811.16 855.921 1810.75 843.086 1810.78 L 770.363 1810.86 L 718.314 1810.88 C 710.205 1810.88 696.535 1811.28 688.828 1810.41 C 677.444 1797.13 665.072 1783.06 654.867 1768.93 C 659.853 1755.15 669.082 1731.2 672.34 1717.41 C 677.71 1694.69 681.116 1665.14 684.265 1641.42 C 676.382 1640.14 635.022 1640.92 625.02 1640.95 L 625.071 1599.78 L 624.99 1549.93 C 646.271 1550.05 677.059 1550.98 697.801 1549.71 C 699.602 1530.16 715.813 1442.01 713.478 1429.5 L 714.388 1429.28 C 719.231 1424.71 731.851 1399.69 735.835 1392.7 C 755.467 1358.26 772.695 1320.1 792.026 1285.86 C 792.24 1283.87 792.285 1284.94 791.699 1282.65 L 789.778 1283.01 C 728.703 1307.63 666.237 1329.5 605.503 1353.89 L 770.237 1236.29 C 788.889 1222.68 807.681 1209.27 826.611 1196.05 C 833.758 1191.01 846.498 1181.18 853.712 1177.26 C 847.113 1173.22 841.312 1173.44 836.47 1168.9 z"/>
<path transform="translate(0,0)" fill="rgb(45,21,32)" d="M 836.47 1168.9 C 844.651 1166.37 854.925 1163.51 862.823 1160.64 C 878.317 1167.77 928.592 1189.79 937.978 1200.01 C 946.685 1209.5 952.923 1223.96 959.036 1235.29 C 963.633 1243.82 970.111 1252.26 973.54 1261.27 C 977.013 1270.39 974.962 1405.62 974.952 1426.15 L 974.886 1698.79 C 982.023 1703.82 1006.1 1721.31 1012.8 1724 C 1011.1 1728.9 1005.79 1736.64 1003.13 1741.77 C 998.601 1747.76 993.901 1756.95 989.575 1763.76 C 980.403 1751.57 971.688 1738.39 963.075 1725.74 C 953.018 1725.55 887.314 1726.67 883.686 1724.29 C 880.966 1705.61 873.806 1676.6 869.691 1657.21 C 861.253 1616.77 852.485 1576.4 843.39 1536.1 C 844.593 1529.22 861.945 1487.63 865.505 1478.52 C 887.76 1421.16 910.45 1363.96 933.572 1306.94 C 924.74 1284.92 910.193 1228.72 906.571 1205.79 L 853.712 1177.26 C 847.113 1173.22 841.312 1173.44 836.47 1168.9 z"/>
<path transform="translate(0,0)" fill="rgb(84,43,50)" d="M 714.388 1429.28 C 719.231 1424.71 731.851 1399.69 735.835 1392.7 C 755.467 1358.26 772.695 1320.1 792.026 1285.86 C 793.335 1293.75 792.913 1301.3 792.702 1309.26 C 791.776 1344.22 789.512 1379.1 787.498 1414.02 C 786.364 1433.68 787.2 1453.85 784.179 1473.27 C 783.264 1478.82 773.985 1500.96 771.306 1507.6 L 751.199 1558.12 L 705.535 1671.83 C 697.633 1691.36 689.352 1713.31 680.647 1732.46 C 691.275 1747.41 699.887 1764.3 709.758 1779.93 C 742.765 1780.15 775.773 1780.2 808.781 1780.09 L 810.138 1778.78 C 815.535 1780.24 821.172 1778.74 826.633 1778.98 C 838.044 1779.5 861.337 1778.25 871.615 1781.98 C 863.276 1790.97 851.334 1801.52 842.163 1810.04 C 854.834 1810 873.875 1809.37 886.048 1810.22 C 873.614 1811.16 855.921 1810.75 843.086 1810.78 L 770.363 1810.86 L 718.314 1810.88 C 710.205 1810.88 696.535 1811.28 688.828 1810.41 C 677.444 1797.13 665.072 1783.06 654.867 1768.93 C 659.853 1755.15 669.082 1731.2 672.34 1717.41 C 677.71 1694.69 681.116 1665.14 684.265 1641.42 C 676.382 1640.14 635.022 1640.92 625.02 1640.95 L 625.071 1599.78 L 624.99 1549.93 C 646.271 1550.05 677.059 1550.98 697.801 1549.71 C 699.602 1530.16 715.813 1442.01 713.478 1429.5 L 714.388 1429.28 z"/>
<path transform="translate(0,0)" fill="rgb(211,97,92)" d="M 808.781 1780.09 L 810.138 1778.78 C 815.535 1780.24 821.172 1778.74 826.633 1778.98 C 838.044 1779.5 861.337 1778.25 871.615 1781.98 C 863.276 1790.97 851.334 1801.52 842.163 1810.04 C 854.834 1810 873.875 1809.37 886.048 1810.22 C 873.614 1811.16 855.921 1810.75 843.086 1810.78 L 770.363 1810.86 L 718.314 1810.88 C 710.205 1810.88 696.535 1811.28 688.828 1810.41 C 698.401 1809.45 715.741 1809.94 725.744 1809.97 L 788.098 1810.08 C 795.081 1800.27 802.445 1790.3 808.781 1780.09 z"/>
<path transform="translate(0,0)" fill="rgb(255,255,255)" d="M 843.39 1536.1 C 852.485 1576.4 861.253 1616.77 869.691 1657.21 C 873.806 1676.6 880.966 1705.61 883.686 1724.29 C 880.294 1726.31 853.973 1725.07 847.985 1724.98 C 807.751 1726.51 811.15 1724.52 774.855 1705.46 L 814.627 1606.9 C 822.205 1587.78 834.948 1553.44 843.39 1536.1 z"/>
<path transform="translate(0,0)" fill="rgb(237,114,102)" d="M 368.898 1548.55 C 376.302 1550.58 504.984 1550.2 510.027 1548.55 C 514.979 1550.25 537.259 1549.64 544.473 1549.69 L 651.122 1549.27 C 663.382 1549.28 686.534 1548.67 697.801 1549.71 C 677.059 1550.98 646.271 1550.05 624.99 1549.93 L 625.071 1599.78 L 625.02 1640.95 C 635.022 1640.92 676.382 1640.14 684.265 1641.42 C 669.607 1643.08 624.003 1641.81 607.099 1641.65 C 579.833 1641.38 542.098 1642.99 516.098 1641.46 C 499.722 1640.09 457.731 1641.07 440.119 1641.68 C 420.614 1640.43 384.395 1641.62 363.934 1641.66 L 213.76 1641.81 C 212.871 1633.83 213.164 1616.47 213.148 1608.13 L 213.118 1549.89 C 231.354 1549.83 362.474 1551.2 368.898 1548.55 z"/>
<path transform="translate(0,0)" fill="rgb(145,69,71)" d="M 213.881 1598.95 C 244.976 1600.36 277.912 1599.67 309.178 1599.67 L 496.45 1599.49 C 537.943 1599.3 583.855 1598.08 625.071 1599.78 L 625.02 1640.95 C 635.022 1640.92 676.382 1640.14 684.265 1641.42 C 669.607 1643.08 624.003 1641.81 607.099 1641.65 C 579.833 1641.38 542.098 1642.99 516.098 1641.46 C 499.722 1640.09 457.731 1641.07 440.119 1641.68 C 420.614 1640.43 384.395 1641.62 363.934 1641.66 L 213.76 1641.81 C 214.823 1630.84 214.043 1610.67 213.881 1598.95 z"/>
<path transform="translate(0,0)" fill="rgb(237,114,102)" d="M 846.566 494.404 C 849.167 479.345 850.264 466.114 852.111 451.037 C 861.755 454.892 880.717 463.004 890.395 465.558 C 889.371 476.014 881.797 482.914 885.07 490.943 C 888.969 490.289 887.73 490.528 891.167 487.704 L 895.462 488.545 C 905.037 497.127 909.794 504.05 922.207 507.287 C 926.455 508.635 932.022 510.211 935.963 512.027 C 935.419 516.441 934.953 520.865 934.565 525.296 C 940.129 537.513 961.935 566.731 970.08 577.839 C 966.84 608.361 974.586 638.862 975.754 669.245 C 975.825 671.088 974.727 673.404 973.929 675.023 C 970.723 679.157 967.955 682.287 966.166 687.292 C 966.663 690.369 967.445 690.826 965.492 692.98 C 958.196 701.025 946.765 709.367 937.797 715.193 C 922.094 723.369 906.332 731.432 890.514 739.383 C 876.894 734.575 863.067 730.38 849.072 726.81 C 850.492 722.68 836.611 648.19 834.406 639.832 C 845.011 618.279 863.507 589.837 875.843 568.578 C 866.914 544.357 857.727 517.47 846.566 494.404 z"/>
<path transform="translate(0,0)" fill="rgb(253,223,191)" d="M 891.167 487.704 L 895.462 488.545 C 905.037 497.127 909.794 504.05 922.207 507.287 C 926.455 508.635 932.022 510.211 935.963 512.027 C 935.419 516.441 934.953 520.865 934.565 525.296 C 940.129 537.513 961.935 566.731 970.08 577.839 C 966.84 608.361 974.586 638.862 975.754 669.245 C 975.825 671.088 974.727 673.404 973.929 675.023 C 971.069 673.813 955.676 671.188 951.887 670.488 C 937.181 667.773 923.017 665.215 908.417 661.845 C 907.796 658.533 903.197 646.265 901.859 642.115 C 896.333 624.977 891.28 607.403 885.184 590.494 C 887.247 583.543 889.321 576.589 891.424 569.641 C 892.937 564.647 896.297 559.429 896.87 554.421 C 897.061 552.745 891.813 550.429 891.203 548.698 C 885.896 533.642 879.565 519.117 874.058 504.11 C 876.906 499.216 879.857 492.998 885.07 490.943 C 888.969 490.289 887.73 490.528 891.167 487.704 z"/>
<path transform="translate(0,0)" fill="rgb(239,131,116)" d="M 885.07 490.943 C 888.969 490.289 887.73 490.528 891.167 487.704 C 895.032 501.029 906.293 512.396 911.709 525.313 C 900.456 516.35 890.142 504.593 885.07 490.943 z"/>
<path transform="translate(0,0)" fill="rgb(45,21,32)" d="M 941.457 561.649 C 942.829 562.964 944.949 566.793 946.41 568.787 C 950.754 574.717 954.722 577.535 960.66 581.727 C 961.553 586.427 962.707 590.801 962.343 595.532 L 961.193 596.51 L 958.423 595.232 C 948.35 587.511 942.064 582.452 932.84 573.87 L 941.457 561.649 z"/>
<path transform="translate(0,0)" fill="rgb(253,223,191)" d="M 871.238 652.992 C 883.17 656.173 896.288 658.905 908.417 661.845 C 923.017 665.215 937.181 667.773 951.887 670.488 C 955.676 671.188 971.069 673.813 973.929 675.023 C 970.723 679.157 967.955 682.287 966.166 687.292 C 966.663 690.369 967.445 690.826 965.492 692.98 C 958.196 701.025 946.765 709.367 937.797 715.193 C 922.091 703.432 903.177 683.592 894.088 666.317 C 886.187 663.337 878.352 657.711 871.238 652.992 z"/>
<path transform="translate(0,0)" fill="rgb(45,21,32)" d="M 871.238 652.992 C 883.17 656.173 896.288 658.905 908.417 661.845 C 923.017 665.215 937.181 667.773 951.887 670.488 C 955.676 671.188 971.069 673.813 973.929 675.023 C 970.723 679.157 967.955 682.287 966.166 687.292 C 956.609 683.773 943.947 681.098 933.956 678.166 C 920.642 674.26 907.386 670.271 894.088 666.317 C 886.187 663.337 878.352 657.711 871.238 652.992 z"/>
<path transform="translate(0,0)" fill="rgb(255,255,255)" d="M 713.478 1429.5 C 715.813 1442.01 699.602 1530.16 697.801 1549.71 C 686.534 1548.67 663.382 1549.28 651.122 1549.27 L 544.473 1549.69 C 537.259 1549.64 514.979 1550.25 510.027 1548.55 C 576.94 1512.8 647.708 1467.93 713.478 1429.5 z"/>
<path transform="translate(0,0)" fill="rgb(253,223,191)" d="M 904.914 402.727 C 923.41 407.773 952.584 420.616 967.494 423.601 C 969.298 430.563 975.426 449.528 970.792 454.919 C 964.317 461.398 957.337 470.621 951.72 478.057 C 945.406 488.006 938.77 500.515 935.963 512.027 C 932.022 510.211 926.455 508.635 922.207 507.287 C 909.794 504.05 905.037 497.127 895.462 488.545 L 891.167 487.704 C 887.73 490.528 888.969 490.289 885.07 490.943 C 881.797 482.914 889.371 476.014 890.395 465.558 C 880.717 463.004 861.755 454.892 852.111 451.037 C 858.872 442.282 894.869 411.661 904.914 402.727 z"/>
<path transform="translate(0,0)" fill="rgb(211,97,92)" d="M 926.705 438.98 C 934.159 441.566 965.999 452.064 970.792 454.919 C 964.317 461.398 957.337 470.621 951.72 478.057 C 945.406 488.006 938.77 500.515 935.963 512.027 C 932.022 510.211 926.455 508.635 922.207 507.287 C 909.794 504.05 905.037 497.127 895.462 488.545 L 891.167 487.704 C 887.73 490.528 888.969 490.289 885.07 490.943 C 881.797 482.914 889.371 476.014 890.395 465.558 C 902.348 456.3 914.86 448.213 926.705 438.98 z"/>
<path transform="translate(0,0)" fill="rgb(239,131,116)" d="M 891.167 487.704 C 898.085 479.404 913.668 470.052 923.087 463.944 C 930.949 468.419 948.063 473.553 951.72 478.057 C 945.406 488.006 938.77 500.515 935.963 512.027 C 932.022 510.211 926.455 508.635 922.207 507.287 C 909.794 504.05 905.037 497.127 895.462 488.545 L 891.167 487.704 z"/>
<path transform="translate(0,0)" fill="rgb(45,21,32)" d="M 895.462 488.545 C 908.033 485.918 920.743 482.87 933.494 481.746 C 926.837 491.815 925.307 495.572 922.207 507.287 C 909.794 504.05 905.037 497.127 895.462 488.545 z"/>
<path transform="translate(0,0)" fill="rgb(45,21,32)" d="M 789.778 1283.01 L 791.699 1282.65 C 792.285 1284.94 792.24 1283.87 792.026 1285.86 C 772.695 1320.1 755.467 1358.26 735.835 1392.7 C 731.851 1399.69 719.231 1424.71 714.388 1429.28 C 712.996 1420.24 750.568 1361.31 756.097 1347.86 C 758.483 1342.05 766.953 1327.65 770.338 1321.05 C 776.743 1308.57 783.093 1295.22 789.778 1283.01 z"/>
<path transform="translate(0,0)" fill="rgb(250,174,148)" d="M 697.385 354.981 C 715.036 355.033 732.688 354.801 750.332 354.284 C 758.646 365.685 769.357 377.864 778.57 388.79 C 775.161 403.552 773.686 417.599 769.706 433.19 C 765.169 456.293 763.511 465.869 748.579 484.732 C 747.079 486.626 741.931 494.179 740.687 495.173 C 737.527 499.462 724.31 518.033 720.95 518.804 C 720.612 523.19 678.911 577.207 672.746 584.171 C 659.231 572.417 650.195 562.671 635.348 551.125 C 639.324 537.316 656.771 455.957 661.541 450.98 C 659.611 444.935 656.898 437.899 654.739 431.83 C 668.602 406.004 683.908 380.454 697.385 354.981 z"/>
<path transform="translate(0,0)" fill="rgb(45,21,32)" d="M 709.684 380.031 C 721.389 380.002 733.247 380.068 744.935 379.876 C 750.265 390.092 757.442 403.964 760.881 414.731 C 764.725 421.141 766.797 428.545 769.706 433.19 C 765.169 456.293 763.511 465.869 748.579 484.732 C 747.079 486.626 741.931 494.179 740.687 495.173 C 736.422 493.481 719.378 495.48 706.827 492.029 L 702.429 492.026 C 698.452 489.046 683.55 440.914 680.74 432.7 C 686.577 419.768 697.263 405.736 703.207 392.196 L 709.684 380.031 z"/>
<path transform="translate(0,0)" fill="rgb(237,114,102)" d="M 703.207 392.196 C 710.304 395.027 727.572 393.65 735.963 393.323 L 744.192 412.629 C 727.96 422.215 718.698 428.539 705.557 442.054 C 712.197 456.184 717.63 470.117 723.527 484.523 C 725.416 489.139 734.983 488.268 738.838 486.074 L 741.169 490.609 L 740.564 491.722 C 729.315 492.697 716.934 491.15 706.827 492.029 L 702.429 492.026 C 698.452 489.046 683.55 440.914 680.74 432.7 C 686.577 419.768 697.263 405.736 703.207 392.196 z"/>
<path transform="translate(0,0)" fill="rgb(239,131,116)" d="M 723.939 443.521 C 738.028 432.943 747.795 427.57 760.881 414.731 C 764.725 421.141 766.797 428.545 769.706 433.19 C 765.169 456.293 763.511 465.869 748.579 484.732 C 747.079 486.626 741.931 494.179 740.687 495.173 C 736.422 493.481 719.378 495.48 706.827 492.029 C 716.934 491.15 729.315 492.697 740.564 491.722 L 741.169 490.609 L 738.838 486.074 C 738.759 474.972 728.457 455.541 723.939 443.521 z"/>
<path transform="translate(0,0)" fill="rgb(45,21,32)" d="M 635.348 551.125 C 639.324 537.316 656.771 455.957 661.541 450.98 C 668 468.676 676.969 497.672 683.666 513.756 C 694.519 514.692 710.708 516.093 720.95 518.804 C 720.612 523.19 678.911 577.207 672.746 584.171 C 659.231 572.417 650.195 562.671 635.348 551.125 z"/>
<path transform="translate(0,0)" fill="rgb(145,69,71)" d="M 757.866 502.666 C 774.468 498.728 795.157 494.19 811.153 488.972 C 816.848 508.218 828.471 549.873 835.715 567.145 C 822.011 591.301 807.133 625.132 793.854 646.788 C 776.753 638.064 747.523 625.942 729.324 618.967 C 728.11 609.288 726.413 600.548 723.252 591.271 L 701.207 589.966 C 708.225 582.843 717.336 581.185 719.68 576.167 C 718.589 571.168 717.18 563.779 715.747 559.109 C 727.966 541.835 744.585 519.344 757.866 502.666 z"/>
<path transform="translate(0,0)" fill="rgb(145,69,71)" d="M 719.68 576.167 C 720.391 579.948 721.917 587.887 723.252 591.271 L 701.207 589.966 C 708.225 582.843 717.336 581.185 719.68 576.167 z"/>
<path transform="translate(0,0)" fill="rgb(51,121,135)" d="M 1578.99 989.919 C 1544.1 981.099 1562.36 930.205 1596.28 950.341 C 1603.02 950.5 1608.78 950.438 1615.52 950.209 L 1670.94 950.189 C 1717.55 949.789 1759.04 942.307 1758.87 1005.62 C 1758.78 1036.27 1758.02 1069.21 1758.81 1099.74 C 1747.56 1099.8 1736.12 1099.96 1724.89 1099.87 C 1724.75 1104.25 1724.73 1111.26 1724.18 1115.4 L 1724.1 1143.1 C 1696.4 1142.93 1668.7 1143.16 1641.01 1143.8 L 1641.02 1168.92 L 1704.4 1168.71 L 1704.53 1304.25 L 1628.03 1304.13 C 1628.03 1320.58 1627.78 1337.72 1628.14 1354.12 C 1562.52 1354.13 1494.2 1353.18 1428.8 1354.59 C 1428.65 1359.57 1428.63 1366.43 1428.19 1371.23 C 1427.84 1365.03 1427.73 1360.6 1427.89 1354.38 C 1403.53 1354.13 1379.17 1354.2 1354.82 1354.58 C 1355.12 1375.63 1355.25 1396.69 1355.22 1417.75 C 1355.24 1426.62 1355.73 1444.85 1354.81 1453.34 C 1353.94 1443.23 1354.32 1427.11 1354.28 1416.72 L 1353.98 1354.14 C 1288.64 1353.01 1218.41 1353.97 1152.87 1354.38 L 1152.69 1304.13 C 1139.85 1303.38 1118.08 1304.05 1104.85 1304.08 C 1073.04 1304.23 1041.23 1304.21 1009.42 1304.01 C 1009.74 1295.17 1009.58 1285.73 1009.58 1276.84 C 1008.47 1264.44 1009.01 1245.05 1009.04 1232.04 C 1043.71 1229.83 1039.38 1232.46 1070.97 1219.8 C 1075.57 1218.41 1084.21 1214.51 1088.96 1212.52 C 1098.11 1207.21 1107.09 1204.67 1115.22 1198.85 C 1117.96 1196.88 1117.54 1192.29 1117.81 1188.65 L 1117.65 1173.14 C 1123.95 1172.99 1129.8 1172.85 1136.1 1173.03 L 1135.61 1187.29 L 1136.27 1188.93 L 1137.9 1189.07 C 1143.26 1186.54 1163.81 1177.65 1166.13 1175.12 L 1166.01 1145.61 L 1152.02 1145.85 L 1151.92 1132.4 C 1163.9 1132.52 1175.89 1132.32 1187.87 1131.8 L 1197.96 1132.16 C 1198.23 1127.32 1198.7 1122.27 1199.07 1117.42 C 1204.21 1116.97 1207.76 1116.7 1213 1116.77 L 1213.93 1116.97 C 1219.72 1116.77 1225.45 1116.46 1231.24 1116.87 C 1231.15 1124.24 1230.96 1131.87 1231.03 1139.22 C 1246.82 1124.67 1258.23 1102.26 1267.21 1083.07 L 1269.83 1075.98 C 1275.04 1058.89 1279.23 1041.27 1283.56 1023.92 C 1289.83 1007.54 1298.23 993.639 1313.86 984.573 C 1316.22 983.383 1323.31 979.342 1325.58 979.207 C 1394.93 975.098 1465.6 978.76 1535.13 977.879 C 1554.38 977.634 1563.13 992.004 1567.51 1008.13 L 1578.22 1007.75 C 1580.04 1004.6 1579.31 993.74 1578.99 989.919 z"/>
<path transform="translate(0,0)" fill="rgb(51,121,135)" d="M 1578.99 989.919 C 1544.1 981.099 1562.36 930.205 1596.28 950.341 C 1603.02 950.5 1608.78 950.438 1615.52 950.209 L 1670.94 950.189 C 1717.55 949.789 1759.04 942.307 1758.87 1005.62 C 1758.78 1036.27 1758.02 1069.21 1758.81 1099.74 C 1747.56 1099.8 1736.12 1099.96 1724.89 1099.87 C 1724.75 1104.25 1724.73 1111.26 1724.18 1115.4 L 1724.1 1143.1 C 1696.4 1142.93 1668.7 1143.16 1641.01 1143.8 L 1641.02 1168.92 L 1568 1168.92 L 1567.98 1084.2 L 1567.95 1075.96 C 1567.65 1061.7 1569.15 1021.19 1567.15 1009.91 L 1567.51 1008.13 L 1578.22 1007.75 C 1580.04 1004.6 1579.31 993.74 1578.99 989.919 z"/>
<path transform="translate(0,0)" fill="rgb(45,21,32)" d="M 1567.51 1008.13 L 1578.22 1007.75 C 1578.37 1008.14 1578.52 1008.53 1578.65 1008.93 C 1580.12 1013.38 1579.12 1021.23 1579.07 1026.09 C 1578.91 1042.31 1576.75 1097.91 1581.02 1109.19 C 1582.6 1113.37 1586.13 1116.54 1589.96 1118.67 C 1603.48 1126.17 1667.26 1123.12 1685.63 1122.54 C 1686.65 1115.05 1688 1106.57 1688.46 1099.13 C 1700.3 1099.52 1712.15 1099.63 1723.99 1099.45 C 1723.98 1104.24 1723.77 1110.77 1724.18 1115.4 L 1724.1 1143.1 C 1696.4 1142.93 1668.7 1143.16 1641.01 1143.8 L 1641.02 1168.92 L 1568 1168.92 L 1567.98 1084.2 L 1567.95 1075.96 C 1567.65 1061.7 1569.15 1021.19 1567.15 1009.91 L 1567.51 1008.13 z"/>
<path transform="translate(0,0)" fill="rgb(45,21,32)" d="M 1578.99 989.919 C 1544.1 981.099 1562.36 930.205 1596.28 950.341 C 1575.52 959.924 1578.71 969.473 1578.99 989.919 z"/>
<path transform="translate(0,0)" fill="rgb(45,21,32)" d="M 1644.94 989.296 C 1668.07 986.411 1689.22 1002.67 1692.39 1025.76 C 1695.55 1048.86 1679.56 1070.21 1656.5 1073.65 C 1641.33 1075.92 1626.12 1069.85 1616.67 1057.78 C 1607.23 1045.7 1605 1029.48 1610.85 1015.3 C 1616.7 1001.13 1629.72 991.194 1644.94 989.296 z"/>
<path transform="translate(0,0)" fill="rgb(137,186,188)" d="M 1283.56 1023.92 C 1289.83 1007.54 1298.23 993.639 1313.86 984.573 C 1316.22 983.383 1323.31 979.342 1325.58 979.207 C 1394.93 975.098 1465.6 978.76 1535.13 977.879 C 1554.38 977.634 1563.13 992.004 1567.51 1008.13 L 1567.15 1009.91 C 1569.15 1021.19 1567.65 1061.7 1567.95 1075.96 L 1567.98 1084.2 C 1548.35 1085.38 1514.76 1084.07 1493.84 1084.06 L 1321.22 1084.21 C 1311.55 1084.09 1273.5 1085.54 1267.21 1083.07 L 1269.83 1075.98 C 1275.04 1058.89 1279.23 1041.27 1283.56 1023.92 z"/>
<path transform="translate(0,0)" fill="rgb(192,221,219)" d="M 1283.56 1023.92 C 1289.83 1007.54 1298.23 993.639 1313.86 984.573 C 1316.22 983.383 1323.31 979.342 1325.58 979.207 C 1394.93 975.098 1465.6 978.76 1535.13 977.879 C 1554.38 977.634 1563.13 992.004 1567.51 1008.13 L 1567.15 1009.91 C 1566.93 1015.03 1566.85 1019.08 1566.97 1024.25 C 1472.5 1023.66 1378.03 1023.55 1283.56 1023.92 z"/>
<path transform="translate(0,0)" fill="rgb(29,80,92)" d="M 1567.95 1075.96 L 1567.98 1084.2 C 1548.35 1085.38 1514.76 1084.07 1493.84 1084.06 L 1321.22 1084.21 C 1311.55 1084.09 1273.5 1085.54 1267.21 1083.07 L 1269.83 1075.98 L 1567.95 1075.96 z"/>
<path transform="translate(0,0)" fill="rgb(145,69,71)" d="M 1152.69 1304.13 L 1628.03 1304.13 C 1628.03 1320.58 1627.78 1337.72 1628.14 1354.12 C 1562.52 1354.13 1494.2 1353.18 1428.8 1354.59 C 1428.65 1359.57 1428.63 1366.43 1428.19 1371.23 C 1427.84 1365.03 1427.73 1360.6 1427.89 1354.38 C 1403.53 1354.13 1379.17 1354.2 1354.82 1354.58 C 1355.12 1375.63 1355.25 1396.69 1355.22 1417.75 C 1355.24 1426.62 1355.73 1444.85 1354.81 1453.34 C 1353.94 1443.23 1354.32 1427.11 1354.28 1416.72 L 1353.98 1354.14 C 1288.64 1353.01 1218.41 1353.97 1152.87 1354.38 L 1152.69 1304.13 z"/>
<path transform="translate(0,0)" fill="rgb(137,186,188)" d="M 1231.03 1139.22 C 1246.82 1124.67 1258.23 1102.26 1267.21 1083.07 C 1273.5 1085.54 1311.55 1084.09 1321.22 1084.21 C 1320.25 1090.25 1288.53 1151.39 1283.88 1159.33 L 1093.79 1241.12 L 1035.79 1265.65 C 1028.47 1268.73 1016.52 1274.39 1009.58 1276.84 C 1008.47 1264.44 1009.01 1245.05 1009.04 1232.04 C 1043.71 1229.83 1039.38 1232.46 1070.97 1219.8 C 1075.57 1218.41 1084.21 1214.51 1088.96 1212.52 C 1098.11 1207.21 1107.09 1204.67 1115.22 1198.85 C 1117.96 1196.88 1117.54 1192.29 1117.81 1188.65 L 1117.65 1173.14 C 1123.95 1172.99 1129.8 1172.85 1136.1 1173.03 L 1135.61 1187.29 L 1136.27 1188.93 L 1137.9 1189.07 C 1143.26 1186.54 1163.81 1177.65 1166.13 1175.12 L 1166.01 1145.61 L 1152.02 1145.85 L 1151.92 1132.4 C 1163.9 1132.52 1175.89 1132.32 1187.87 1131.8 L 1197.96 1132.16 C 1198.23 1127.32 1198.7 1122.27 1199.07 1117.42 C 1204.21 1116.97 1207.76 1116.7 1213 1116.77 L 1213.93 1116.97 C 1219.72 1116.77 1225.45 1116.46 1231.24 1116.87 C 1231.15 1124.24 1230.96 1131.87 1231.03 1139.22 z"/>
<path transform="translate(0,0)" fill="rgb(255,255,255)" d="M 1199.07 1117.42 C 1204.21 1116.97 1207.76 1116.7 1213 1116.77 C 1212.91 1127.68 1212.6 1138.88 1213.52 1149.74 C 1202.95 1155.4 1194.25 1160.17 1184.07 1166.54 C 1184.04 1162.62 1184.17 1157.06 1183.83 1153.29 L 1183.15 1153.08 C 1183.01 1148.74 1183.73 1148.88 1181.62 1146.07 C 1177.07 1143.96 1171.3 1145.16 1166.01 1145.61 L 1152.02 1145.85 L 1151.92 1132.4 C 1163.9 1132.52 1175.89 1132.32 1187.87 1131.8 L 1197.96 1132.16 C 1198.23 1127.32 1198.7 1122.27 1199.07 1117.42 z"/>
<path transform="translate(0,0)" fill="rgb(51,121,135)" d="M 1187.87 1131.8 L 1197.96 1132.16 L 1197.99 1145.79 C 1192.99 1145.48 1188.54 1144.38 1184.65 1146.77 C 1183.5 1149.76 1183.73 1150.14 1183.83 1153.29 L 1183.15 1153.08 C 1183.01 1148.74 1183.73 1148.88 1181.62 1146.07 C 1177.07 1143.96 1171.3 1145.16 1166.01 1145.61 L 1152.02 1145.85 L 1151.92 1132.4 C 1163.9 1132.52 1175.89 1132.32 1187.87 1131.8 z"/>
<path transform="translate(0,0)" fill="rgb(45,21,32)" d="M 1213.93 1116.97 C 1219.72 1116.77 1225.45 1116.46 1231.24 1116.87 C 1231.15 1124.24 1230.96 1131.87 1231.03 1139.22 L 1214.14 1149.38 C 1213.7 1138.7 1213.89 1127.68 1213.93 1116.97 z"/>
<path transform="translate(0,0)" fill="rgb(45,21,32)" d="M 1166.01 1145.61 C 1171.3 1145.16 1177.07 1143.96 1181.62 1146.07 C 1183.73 1148.88 1183.01 1148.74 1183.15 1153.08 L 1183.14 1167.16 C 1179.62 1168.88 1169.26 1174.22 1166.13 1175.12 L 1166.01 1145.61 z"/>
<path transform="translate(0,0)" fill="rgb(45,21,32)" d="M 1117.65 1173.14 C 1123.95 1172.99 1129.8 1172.85 1136.1 1173.03 L 1135.61 1187.29 C 1134.04 1192.69 1124.69 1196.75 1119.38 1197.79 L 1118.27 1196.99 L 1117.81 1188.65 L 1117.65 1173.14 z"/>
<path transform="translate(0,0)" fill="rgb(145,69,71)" d="M 1354.82 1354.58 C 1379.17 1354.2 1403.53 1354.13 1427.89 1354.38 C 1427.73 1360.6 1427.84 1365.03 1428.19 1371.23 L 1428.18 1377.67 C 1429.26 1395.59 1428.71 1418.89 1428.68 1437.11 L 1428.46 1535.69 C 1428.77 1616.77 1428.67 1697.85 1428.17 1778.93 L 1354.7 1778.82 L 1354.58 1574.81 C 1354.54 1541.49 1352.82 1497.24 1354.81 1464.78 L 1354.81 1453.34 C 1355.73 1444.85 1355.24 1426.62 1355.22 1417.75 C 1355.25 1396.69 1355.12 1375.63 1354.82 1354.58 z"/>
<path transform="translate(0,0)" fill="rgb(45,21,32)" d="M 1354.82 1354.58 C 1379.17 1354.2 1403.53 1354.13 1427.89 1354.38 C 1427.73 1360.6 1427.84 1365.03 1428.19 1371.23 L 1428.18 1377.67 C 1427.27 1392.97 1427.76 1412.54 1427.76 1428.15 L 1427.92 1515.94 C 1405.34 1505.08 1377.78 1491.31 1355.14 1481.3 C 1355.15 1476.25 1355.37 1469.68 1354.81 1464.78 L 1354.81 1453.34 C 1355.73 1444.85 1355.24 1426.62 1355.22 1417.75 C 1355.25 1396.69 1355.12 1375.63 1354.82 1354.58 z"/>
<path transform="translate(0,0)" fill="rgb(253,223,191)" d="M 1065.7 1013.5 C 1073.13 1015.76 1110.91 1025.78 1117.32 1025.48 C 1124.61 1029.93 1155.64 1034.55 1167.33 1038.15 C 1170.52 1049.65 1190.32 1090.62 1196.82 1102.2 C 1199.89 1103.61 1202.58 1103.16 1206.01 1103.08 C 1200.92 1103.94 1201.33 1103 1198.66 1106 C 1197.91 1110.62 1198.87 1112.86 1199.07 1117.42 C 1198.7 1122.27 1198.23 1127.32 1197.96 1132.16 L 1187.87 1131.8 C 1185.46 1130.51 1181.44 1129.68 1178.56 1128.04 C 1168.69 1122.42 1165.9 1115.86 1162.93 1105.61 C 1159.01 1109.01 1157.93 1111.89 1155.51 1116.47 C 1150.32 1125.85 1137.87 1138.05 1130.14 1145.72 C 1125.3 1138.89 1119.5 1131.6 1114.4 1124.88 C 1119.54 1117.13 1127.64 1110.11 1130.52 1102.45 C 1129.85 1098.95 1130 1100 1126.97 1096.98 C 1122.67 1104.01 1115.96 1113.09 1111.14 1120.05 C 1093.63 1109.59 1070.52 1099.56 1054.81 1089.25 C 1050.75 1089.67 1036.4 1099.35 1030.96 1102.04 C 1019.27 1099.45 1006.2 1096.26 994.536 1094.09 C 1003.9 1081.61 1015.72 1067.83 1025.71 1055.62 L 1027.16 1054.6 C 1038.8 1040.21 1052.6 1026.56 1065.7 1013.5 z"/>
<path transform="translate(0,0)" fill="rgb(237,114,102)" d="M 1025.71 1055.62 L 1027.16 1054.6 C 1062.24 1061.25 1097.26 1068.24 1132.21 1075.57 C 1138.61 1087.43 1147.83 1106.04 1155.51 1116.47 C 1150.32 1125.85 1137.87 1138.05 1130.14 1145.72 C 1125.3 1138.89 1119.5 1131.6 1114.4 1124.88 C 1119.54 1117.13 1127.64 1110.11 1130.52 1102.45 C 1129.85 1098.95 1130 1100 1126.97 1096.98 C 1122.67 1104.01 1115.96 1113.09 1111.14 1120.05 C 1093.63 1109.59 1070.52 1099.56 1054.81 1089.25 C 1050.75 1089.67 1036.4 1099.35 1030.96 1102.04 C 1019.27 1099.45 1006.2 1096.26 994.536 1094.09 C 1003.9 1081.61 1015.72 1067.83 1025.71 1055.62 z"/>
<path transform="translate(0,0)" fill="rgb(84,43,50)" d="M 1074.15 1077.4 L 1075.84 1077.82 C 1096.76 1082.83 1115 1078.91 1126.97 1096.98 C 1122.67 1104.01 1115.96 1113.09 1111.14 1120.05 C 1093.63 1109.59 1070.52 1099.56 1054.81 1089.25 C 1060.87 1085.45 1067.97 1080.77 1074.15 1077.4 z"/>
<path transform="translate(0,0)" fill="rgb(237,114,102)" d="M 1151.58 1059.56 C 1131.82 1055.09 1112.86 1048.25 1092.92 1044.64 C 1089.89 1044.09 1084.32 1041.04 1081.87 1039.16 L 1081.54 1037.94 C 1089.21 1035.19 1143.57 1050.94 1156.87 1053.56 C 1163.41 1076.9 1174.27 1107.39 1199.07 1117.42 C 1198.7 1122.27 1198.23 1127.32 1197.96 1132.16 L 1187.87 1131.8 C 1185.46 1130.51 1181.44 1129.68 1178.56 1128.04 C 1168.69 1122.42 1165.9 1115.86 1162.93 1105.61 C 1163.06 1103.04 1163.3 1102.63 1164.61 1100.42 C 1162.06 1084.62 1155.71 1074.35 1151.58 1059.56 z"/>
<path transform="translate(0,0)" fill="rgb(253,223,191)" d="M 883.686 1724.29 C 887.314 1726.67 953.018 1725.55 963.075 1725.74 C 971.688 1738.39 980.403 1751.57 989.575 1763.76 C 994.231 1770.4 1020.79 1808.07 1025.15 1810.91 L 993.098 1811.15 L 986.443 1810.47 L 957.922 1810.13 L 944.476 1809.93 L 886.048 1810.22 C 873.875 1809.37 854.834 1810 842.163 1810.04 C 851.334 1801.52 863.276 1790.97 871.615 1781.98 C 861.337 1778.25 838.044 1779.5 826.633 1778.98 C 821.172 1778.74 815.535 1780.24 810.138 1778.78 C 819.944 1762.71 836.541 1741.1 847.985 1724.98 C 853.973 1725.07 880.294 1726.31 883.686 1724.29 z"/>
<path transform="translate(0,0)" fill="rgb(45,21,32)" d="M 871.615 1781.98 C 876.172 1779.03 912.802 1780.66 920.866 1780.82 C 927.172 1788.86 937.899 1803.4 944.476 1809.93 L 886.048 1810.22 C 873.875 1809.37 854.834 1810 842.163 1810.04 C 851.334 1801.52 863.276 1790.97 871.615 1781.98 z"/>
<path transform="translate(0,0)" fill="rgb(237,114,102)" d="M 927.825 1771.73 C 937.093 1784.86 947.763 1797.62 957.922 1810.13 L 944.476 1809.93 C 937.899 1803.4 927.172 1788.86 920.866 1780.82 C 912.802 1780.66 876.172 1779.03 871.615 1781.98 C 861.337 1778.25 838.044 1779.5 826.633 1778.98 L 831.937 1778.04 L 832.813 1776.41 L 831.781 1773.45 C 835.643 1770.54 916.576 1772.06 927.825 1771.73 z"/>
<path transform="translate(0,0)" fill="rgb(237,114,102)" d="M 944.964 1751.62 C 931.12 1751.34 917.275 1751.15 903.429 1751.05 C 894.828 1751.04 880.585 1753.45 873.932 1747.66 L 875.62 1745.52 C 894.098 1743.77 930.716 1744.25 950.513 1744.39 C 960.175 1760.3 970.539 1775.77 981.572 1790.75 C 983.977 1793.98 994.792 1807.19 994.51 1810.04 L 993.098 1811.15 L 986.443 1810.47 C 972.341 1790.94 958.983 1771 944.964 1751.62 z"/>
<path transform="translate(0,0)" fill="rgb(45,21,32)" d="M 440.119 1641.68 C 457.731 1641.07 499.722 1640.09 516.098 1641.46 L 515.923 1810.18 L 440.501 1810.45 L 440.119 1641.68 z"/>
<path transform="translate(0,0)" fill="url(#Gradient1)" d="M 1042.39 952.781 C 1066.64 958.461 1095.27 966.096 1119.11 970.949 C 1147.5 977.292 1175.92 983.487 1204.38 989.535 C 1215.7 1006.73 1226.93 1024 1238.05 1041.33 C 1242.12 1047.58 1252.65 1062.94 1255.56 1068.92 L 1256.97 1069.96 C 1257.78 1072.72 1253.59 1086.57 1252.63 1090.15 C 1243.22 1089.6 1233.8 1089.29 1224.37 1089.21 C 1215.49 1073.86 1193.53 1044.5 1182.64 1029.5 C 1154.49 1023.25 1126.39 1016.75 1098.35 1010 C 1103.07 1014.94 1111.53 1020.59 1117.32 1025.48 C 1110.91 1025.78 1073.13 1015.76 1065.7 1013.5 C 1053.23 1010.77 1016.28 1002.23 1005.09 997.831 C 1018.41 982.572 1029.73 968.505 1042.39 952.781 z"/>
<path transform="translate(0,0)" fill="rgb(237,114,102)" d="M 1119.11 970.949 C 1147.5 977.292 1175.92 983.487 1204.38 989.535 C 1215.7 1006.73 1226.93 1024 1238.05 1041.33 C 1242.12 1047.58 1252.65 1062.94 1255.56 1068.92 C 1206.73 1051.47 1219.78 1048.07 1192.31 1011.69 C 1174.86 1008.94 1152.91 1001.83 1135.38 997.461 C 1116.75 992.824 1095.62 988.525 1077.59 982.851 C 1089.59 978.804 1106.62 974.516 1119.11 970.949 z"/>
<path transform="translate(0,0)" fill="rgb(237,114,102)" d="M 1012.8 1724 C 1018.82 1722.45 1047.35 1723.03 1055.56 1723.04 C 1085.39 1723.18 1115.22 1723.17 1145.05 1723 C 1164.07 1752.82 1182.29 1781.66 1202.78 1810.51 C 1190.97 1810.6 1148.4 1811.68 1138.7 1810.32 L 1112.95 1772.02 C 1090.96 1772.27 1068.96 1772.24 1046.96 1771.93 C 1039.67 1768.58 1009.85 1750.55 1007.86 1744.64 C 1004.98 1743.8 1005.1 1743.98 1003.13 1741.77 C 1005.79 1736.64 1011.1 1728.9 1012.8 1724 z"/>
<path transform="translate(0,0)" fill="rgb(145,69,71)" d="M 1007.86 1744.64 C 1040.17 1745.51 1097.13 1746.51 1128.97 1744.15 C 1137.29 1759.74 1160.63 1794.75 1171.6 1809.85 C 1161.92 1809.85 1148.04 1809.43 1138.7 1810.32 L 1112.95 1772.02 C 1090.96 1772.27 1068.96 1772.24 1046.96 1771.93 C 1039.67 1768.58 1009.85 1750.55 1007.86 1744.64 z"/>
<path transform="translate(0,0)" fill="rgb(253,223,191)" d="M 1615.52 950.209 C 1622.23 937.763 1634.45 920.528 1646.84 905.316 C 1674.53 871.301 1722.18 822.952 1756.96 797.666 C 1760.06 795.415 1823.21 786.124 1828.28 785.595 C 1775.71 831.231 1721.74 870.696 1683.36 930.872 C 1684.33 932.933 1683.59 932.092 1685.64 933.329 C 1678.67 937.175 1675.24 943.566 1670.94 950.189 L 1615.52 950.209 z"/>
<path transform="translate(0,0)" fill="rgb(84,43,50)" d="M 1354.7 1778.82 L 1428.17 1778.93 L 1479.72 1778.95 C 1508.66 1778.93 1525.52 1775.76 1531.29 1810.04 C 1438.37 1811.04 1343.88 1810.46 1250.9 1810.13 C 1253.94 1783.32 1268.37 1778.35 1293.08 1778.65 C 1313.5 1778.91 1334.27 1778.86 1354.7 1778.82 z"/>
<path transform="translate(0,0)" fill="rgb(211,97,92)" d="M 989.575 1763.76 C 993.901 1756.95 998.601 1747.76 1003.13 1741.77 C 1005.1 1743.98 1004.98 1743.8 1007.86 1744.64 C 1009.85 1750.55 1039.67 1768.58 1046.96 1771.93 C 1053.38 1776.28 1071.11 1784.79 1078.47 1787.94 C 1077.24 1795.62 1076.04 1802.92 1074.49 1810.54 C 1058.04 1810.4 1041.59 1810.52 1025.15 1810.91 C 1020.79 1808.07 994.231 1770.4 989.575 1763.76 z"/>
<path transform="translate(0,0)" fill="rgb(253,223,191)" d="M 1713.9 925.528 C 1764.39 918.58 1824.39 933.142 1870.72 953.839 C 1862.78 958.066 1854.44 962.35 1846.65 966.787 C 1814.29 950.198 1749.9 925.64 1714.22 927.149 L 1713.9 925.528 z"/>
<path transform="translate(0,0)" fill="rgb(51,121,135)" d="M 1056.92 1182.62 L 1102.99 1182.7 L 1103 1196.9 C 1098.44 1196.82 1093.65 1196.56 1089.07 1196.38 L 1088.96 1212.52 C 1084.21 1214.51 1075.57 1218.41 1070.97 1219.8 C 1070.98 1213.12 1071.11 1206.44 1071.37 1199.77 C 1071.23 1199.06 1070.63 1197.63 1070.36 1196.9 C 1066.37 1195.47 1061.15 1196.44 1056.72 1196.82 L 1056.92 1182.62 z"/>
<path transform="translate(0,0)" fill="rgb(45,21,32)" d="M 1071.37 1199.77 C 1071.73 1197.96 1071.66 1198.48 1072.67 1196.81 C 1078.25 1195.59 1083.34 1196.15 1089.07 1196.38 L 1088.96 1212.52 C 1084.21 1214.51 1075.57 1218.41 1070.97 1219.8 C 1070.98 1213.12 1071.11 1206.44 1071.37 1199.77 z"/>
<path transform="translate(0,0)" fill="rgb(51,121,135)" d="M 1102.14 1158.93 L 1150.23 1159.21 L 1149.98 1173.18 L 1136.1 1173.03 C 1129.8 1172.85 1123.95 1172.99 1117.65 1173.14 L 1101.84 1172.84 L 1102.14 1158.93 z"/>
<path transform="translate(0,0)" fill="rgb(51,121,135)" d="M 1206.01 1103.08 C 1217.93 1103.32 1233.59 1102.89 1245.03 1103.87 L 1244.93 1117.02 L 1231.24 1116.87 C 1225.45 1116.46 1219.72 1116.77 1213.93 1116.97 L 1213 1116.77 C 1207.76 1116.7 1204.21 1116.97 1199.07 1117.42 C 1198.87 1112.86 1197.91 1110.62 1198.66 1106 C 1201.33 1103 1200.92 1103.94 1206.01 1103.08 z"/>
<path transform="translate(0,0)" fill="rgb(235,232,222)" d="M 1683.36 930.872 C 1686.74 930.804 1707.81 926.331 1713.9 925.528 L 1714.22 927.149 C 1704.43 928.484 1691.26 932.585 1685.64 933.329 C 1683.59 932.092 1684.33 932.933 1683.36 930.872 z"/>
</svg>